<?xml version="1.0" standalone="no"?>
<!DOCTYPE svg PUBLIC "-//W3C//DTD SVG 20010904//EN"
 "http://www.w3.org/TR/2001/REC-SVG-20010904/DTD/svg10.dtd">
<svg version="1.0" xmlns="http://www.w3.org/2000/svg"
 width="700.000000pt" height="700.000000pt" viewBox="0 0 700.000000 700.000000"
 preserveAspectRatio="xMidYMid meet">
<metadata>
Created by potrace 1.11, written by Peter Selinger 2001-2013
</metadata>
<g transform="translate(0.000000,700.000000) scale(0.100000,-0.100000)"
fill="#000000" stroke="none">
<path d="M3327 6574 c-1 -1 -63 -4 -137 -8 -418 -20 -764 -100 -1010 -234
-274 -148 -464 -340 -610 -617 -58 -110 -162 -355 -204 -480 -33 -96 -74 -261
-83 -330 -11 -90 -4 -295 13 -379 5 -21 49 -246 85 -431 21 -110 55 -307 64
-370 3 -22 7 -53 10 -70 2 -16 7 -55 10 -86 l7 -56 -36 4 c-20 2 -36 0 -35 -4
3 -21 -3 -32 -19 -37 -30 -10 -80 -59 -92 -91 -17 -45 -14 -86 10 -140 24 -52
90 -158 103 -163 4 -2 7 -8 7 -12 0 -5 20 -37 44 -72 122 -177 149 -269 120
-417 -7 -41 -12 -83 -9 -95 2 -11 4 -28 4 -37 1 -9 13 -29 28 -44 23 -22 34
-26 65 -22 20 3 51 15 67 26 l30 22 5 -23 c12 -50 58 -263 61 -278 13 -65 102
-333 131 -397 8 -17 14 -34 14 -37 0 -9 59 -135 117 -251 67 -134 147 -265
221 -364 165 -219 478 -451 742 -548 36 -13 74 -27 85 -32 27 -12 162 -49 205
-56 138 -23 189 -25 288 -10 119 18 292 93 442 193 169 112 415 337 546 497
56 69 178 250 196 292 7 15 22 44 33 63 12 19 34 67 50 105 16 39 32 75 36 80
10 14 84 247 107 335 38 146 90 429 84 453 -3 9 4 6 64 -35 50 -33 92 -36 127
-8 35 28 43 77 27 172 -28 174 -14 218 149 468 52 80 105 166 119 192 57 110
24 201 -93 249 l-52 21 34 122 c108 389 175 682 199 861 3 28 8 59 10 70 16
81 22 358 10 475 -36 336 -244 725 -477 889 -330 234 -525 349 -769 454 -150
65 -340 124 -456 143 -21 3 -42 8 -45 10 -3 1 -34 6 -70 10 -35 3 -66 8 -69
10 -17 9 -492 26 -503 18z m-827 -966 c53 -202 63 -218 322 -493 l57 -60 -5
61 c-5 77 -20 121 -84 236 -28 50 -55 109 -59 130 -17 72 11 170 46 164 17 -4
52 -8 161 -22 26 -3 112 -19 192 -36 174 -35 165 -33 215 -47 23 -6 52 -8 65
-5 72 15 282 53 330 59 30 4 57 8 60 10 5 3 81 11 225 25 187 17 437 3 605
-34 281 -62 493 -219 612 -451 42 -82 83 -204 98 -289 6 -34 13 -72 16 -86 23
-131 23 -492 0 -615 -2 -11 -7 -47 -10 -80 -4 -33 -13 -94 -21 -135 -8 -41
-17 -93 -20 -114 -3 -21 -7 -48 -10 -60 -3 -12 -7 -32 -9 -46 -20 -125 -31
-156 -75 -215 -25 -33 -49 -62 -53 -65 -19 -14 -61 -1 -83 25 l-23 29 60 89
c33 49 58 90 56 91 -2 2 -43 17 -93 34 -49 17 -155 54 -235 82 -167 59 -256
80 -355 82 -66 2 -212 -9 -224 -17 -4 -2 -22 -6 -41 -9 -44 -7 -193 -50 -268
-77 -208 -76 -347 -124 -409 -143 -39 -12 -75 -24 -78 -28 -4 -3 15 -35 42
-70 42 -54 49 -70 48 -108 0 -33 -4 -44 -14 -42 -7 1 -54 3 -103 4 l-89 1 2
65 c2 41 -2 67 -8 69 -11 4 -25 -25 -22 -43 1 -5 1 -28 0 -51 -1 -45 3 -42
-93 -59 -37 -6 -38 -5 -38 24 0 38 -26 102 -43 103 -6 0 -20 2 -29 4 -17 3
-153 10 -383 21 -128 5 -555 5 -620 0 -27 -3 -88 -8 -135 -12 -47 -3 -94 -8
-105 -9 -11 -2 -23 -4 -28 -4 -4 -1 -12 -12 -19 -25 -8 -20 -18 -25 -47 -24
-33 0 -41 6 -74 54 -32 45 -39 65 -47 136 -11 91 -17 138 -25 196 -3 20 -7 64
-10 97 -3 33 -8 76 -10 95 -18 144 -26 581 -12 688 14 108 19 139 38 232 87
417 331 654 719 696 30 4 57 8 59 10 2 2 19 4 37 4 31 0 34 -3 44 -42z m2150
-1979 c36 -12 112 -42 170 -66 58 -23 110 -43 117 -43 6 0 14 -4 17 -9 3 -5
-9 -7 -27 -5 -219 20 -696 20 -997 -1 -70 -5 -55 4 93 56 141 50 279 87 359
95 35 3 64 7 65 8 9 7 148 -17 203 -35z m-934 -231 c-4 -23 -9 -44 -11 -46 -2
-2 -29 1 -59 8 -49 10 -56 14 -56 35 0 17 5 22 18 19 9 -3 33 2 52 10 57 25
63 22 56 -26z m-1966 -100 c22 0 42 -4 45 -8 3 -4 7 -59 10 -121 9 -190 41
-336 79 -369 18 -14 30 -16 211 -26 244 -15 870 -6 1030 15 47 6 75 137 77
369 1 46 4 85 7 86 3 2 28 7 55 11 l49 8 -7 -109 c-3 -60 -8 -122 -11 -139 -2
-16 -6 -48 -9 -70 -26 -194 -66 -288 -180 -423 -93 -111 -124 -163 -132 -222
-5 -37 -3 -44 29 -74 42 -40 66 -45 217 -52 63 -3 135 -12 160 -20 54 -19 133
-13 188 14 27 13 64 19 137 20 55 2 123 7 152 13 44 9 53 15 67 44 16 32 15
44 -6 95 -29 68 -49 99 -120 183 -43 51 -89 115 -103 143 -46 93 -81 261 -90
426 -3 51 -8 110 -11 132 l-5 39 53 -7 c29 -4 54 -8 55 -10 2 -1 5 -63 8 -137
3 -74 7 -144 9 -156 3 -12 8 -41 11 -66 10 -65 34 -100 70 -102 306 -19 827
-25 1015 -12 58 5 127 9 153 11 27 2 54 9 62 17 11 12 57 124 54 132 -2 2 11
101 17 130 2 11 4 66 5 123 l1 104 48 0 c29 0 50 5 53 13 11 25 7 -19 -12
-150 -11 -72 -23 -157 -26 -190 -3 -32 -8 -69 -11 -83 -2 -14 -6 -44 -9 -67
-3 -24 -8 -62 -10 -85 -23 -187 -99 -639 -111 -659 -2 -3 -6 -20 -9 -37 -3
-17 -21 -84 -41 -149 -90 -299 -210 -533 -379 -739 -54 -66 -65 -77 -71 -72
-2 3 -31 72 -63 154 -132 338 -257 567 -373 682 -39 39 -62 53 -107 65 -31 8
-112 31 -181 51 -175 51 -249 64 -371 64 -111 1 -225 -19 -349 -59 -142 -46
-346 -133 -372 -158 -36 -35 -87 -127 -132 -241 -21 -52 -42 -104 -46 -115
-24 -58 -87 -308 -116 -462 -3 -18 -9 -33 -13 -33 -4 0 -23 19 -42 42 -128
155 -309 496 -416 783 -42 113 -124 412 -137 500 -7 45 -13 76 -26 155 -5 30
-12 78 -15 105 -3 28 -8 64 -10 80 -2 17 -7 62 -10 100 -4 39 -8 77 -10 85 -3
8 -7 49 -10 90 -3 41 -7 86 -10 100 -2 14 -7 68 -10 120 -4 52 -9 103 -12 114
-3 12 -1 16 6 12 6 -4 29 -8 51 -8z m1815 -58 c2 -14 6 -77 9 -140 4 -63 9
-124 11 -135 3 -11 6 -33 9 -50 23 -161 85 -305 173 -400 87 -93 150 -206 139
-250 -8 -32 -50 -42 -203 -49 -88 -3 -130 -9 -155 -22 -42 -22 -130 -26 -173
-8 -19 7 -83 16 -147 18 -136 6 -165 11 -198 35 -52 38 -22 122 89 256 101
121 117 145 140 214 18 53 29 95 56 221 2 13 11 86 21 190 1 14 3 53 3 88 l1
63 111 -3 c111 -3 112 -3 114 -28z m65 -1525 c293 -52 500 -200 500 -356 0
-112 -117 -247 -289 -334 -141 -70 -260 -97 -421 -94 -384 6 -751 301 -642
516 37 71 154 165 252 202 19 7 44 17 55 21 48 19 109 34 200 47 22 3 42 7 44
9 6 6 259 -3 301 -11z"/>
<path d="M2419 4096 c-2 -2 -22 -6 -44 -9 -74 -9 -239 -57 -330 -97 -52 -22
-156 -59 -208 -74 l-59 -17 18 -27 c104 -160 107 -164 134 -158 15 2 100 34
191 69 212 84 273 100 384 100 142 0 266 -32 525 -135 243 -97 313 -120 326
-106 28 31 134 170 134 176 0 4 -76 31 -168 61 -92 30 -174 58 -182 63 -8 5
-83 31 -167 58 -133 43 -201 60 -328 85 -37 7 -221 16 -226 11z"/>
<path d="M3163 1501 c-106 -42 -193 -82 -193 -88 0 -7 5 -13 10 -13 6 0 92 33
193 73 l182 73 60 -23 c58 -23 61 -23 107 -6 52 19 43 21 242 -72 73 -34 101
-43 107 -34 5 9 -32 31 -124 74 -195 90 -176 85 -225 64 -42 -18 -43 -18 -105
5 l-62 23 -192 -76z"/>
<path d="M3333 1402 c-39 -2 -53 -7 -53 -18 0 -12 15 -14 88 -10 48 2 126 5
175 5 71 1 87 4 87 16 0 14 -17 16 -122 13 -68 -2 -147 -4 -175 -6z"/>
<path d="M3262 1259 c7 -21 84 -40 173 -43 89 -3 206 21 213 43 5 14 -9 13
-83 -5 -42 -11 -162 -12 -205 -3 -99 22 -103 22 -98 8z"/>
</g>
</svg>
